<svg xmlns="http://www.w3.org/2000/svg" xmlns:xlink="http://www.w3.org/1999/xlink" width="100" zoomAndPan="magnify" viewBox="0 0 75 74.999997" height="100" preserveAspectRatio="xMidYMid meet" version="1.0"><defs><g/></defs><rect x="-7.5" width="90" fill="#30c056" y="-7.5" height="89.999996" fill-opacity="1"/><path stroke-linecap="butt" transform="matrix(0.752941, 0, 0, 0.749671, -3.25396, -2.436348)" fill="none" stroke-linejoin="miter" d="M 0.0000711241 -0.00153647 L 107.578212 -0.00153647 L 107.578212 107.034939 L 0.0000711241 107.034939 L 0.0000711241 -0.00153647 " stroke="#ffffff" stroke-width="2" stroke-opacity="1" stroke-miterlimit="4"/><g fill="#ffffff" fill-opacity="1"><g transform="translate(4.709919, 43.684115)"><g><path d="M 2.6875 -8.203125 L 2.6875 -3.296875 C 2.6875 -2.804688 2.804688 -2.425781 3.046875 -2.15625 C 3.285156 -1.894531 3.640625 -1.765625 4.109375 -1.765625 C 4.578125 -1.765625 4.9375 -1.894531 5.1875 -2.15625 C 5.4375 -2.425781 5.5625 -2.804688 5.5625 -3.296875 L 5.5625 -8.203125 L 7.5625 -8.203125 L 7.5625 -3.3125 C 7.5625 -2.570312 7.40625 -1.945312 7.09375 -1.4375 C 6.78125 -0.9375 6.359375 -0.554688 5.828125 -0.296875 C 5.304688 -0.046875 4.722656 0.078125 4.078125 0.078125 C 3.429688 0.078125 2.851562 -0.046875 2.34375 -0.296875 C 1.832031 -0.546875 1.425781 -0.925781 1.125 -1.4375 C 0.832031 -1.945312 0.6875 -2.570312 0.6875 -3.3125 L 0.6875 -8.203125 Z M 2.6875 -8.203125 "/></g></g></g><g fill="#ffffff" fill-opacity="1"><g transform="translate(13.835353, 43.684115)"><g><path d="M 2.71875 -8.203125 L 2.71875 0 L 0.71875 0 L 0.71875 -8.203125 Z M 2.71875 -8.203125 "/></g></g></g><g fill="#ffffff" fill-opacity="1"><g transform="translate(18.170543, 43.684115)"><g><path d="M 0.390625 -4.109375 C 0.390625 -4.921875 0.5625 -5.644531 0.90625 -6.28125 C 1.257812 -6.914062 1.75 -7.410156 2.375 -7.765625 C 3 -8.117188 3.710938 -8.296875 4.515625 -8.296875 C 5.484375 -8.296875 6.3125 -8.035156 7 -7.515625 C 7.695312 -7.003906 8.164062 -6.304688 8.40625 -5.421875 L 6.203125 -5.421875 C 6.035156 -5.765625 5.800781 -6.023438 5.5 -6.203125 C 5.207031 -6.378906 4.867188 -6.46875 4.484375 -6.46875 C 3.867188 -6.46875 3.367188 -6.253906 2.984375 -5.828125 C 2.609375 -5.398438 2.421875 -4.828125 2.421875 -4.109375 C 2.421875 -3.390625 2.609375 -2.816406 2.984375 -2.390625 C 3.367188 -1.960938 3.867188 -1.75 4.484375 -1.75 C 4.867188 -1.75 5.207031 -1.835938 5.5 -2.015625 C 5.800781 -2.203125 6.035156 -2.46875 6.203125 -2.8125 L 8.40625 -2.8125 C 8.164062 -1.914062 7.695312 -1.210938 7 -0.703125 C 6.3125 -0.191406 5.484375 0.0625 4.515625 0.0625 C 3.710938 0.0625 3 -0.113281 2.375 -0.46875 C 1.75 -0.820312 1.257812 -1.316406 0.90625 -1.953125 C 0.5625 -2.585938 0.390625 -3.304688 0.390625 -4.109375 Z M 0.390625 -4.109375 "/></g></g></g><g fill="#ffffff" fill-opacity="1"><g transform="translate(27.961931, 43.684115)"><g><path d="M 5.484375 0 L 2.71875 -3.625 L 2.71875 0 L 0.71875 0 L 0.71875 -8.203125 L 2.71875 -8.203125 L 2.71875 -4.609375 L 5.453125 -8.203125 L 7.8125 -8.203125 L 4.625 -4.1875 L 7.921875 0 Z M 5.484375 0 "/></g></g></g><g fill="#ffffff" fill-opacity="1"><g transform="translate(36.993902, 43.684115)"><g><path d="M 0.390625 -4.109375 C 0.390625 -4.921875 0.5625 -5.644531 0.90625 -6.28125 C 1.257812 -6.914062 1.75 -7.410156 2.375 -7.765625 C 3 -8.117188 3.710938 -8.296875 4.515625 -8.296875 C 5.484375 -8.296875 6.3125 -8.035156 7 -7.515625 C 7.695312 -7.003906 8.164062 -6.304688 8.40625 -5.421875 L 6.203125 -5.421875 C 6.035156 -5.765625 5.800781 -6.023438 5.5 -6.203125 C 5.207031 -6.378906 4.867188 -6.46875 4.484375 -6.46875 C 3.867188 -6.46875 3.367188 -6.253906 2.984375 -5.828125 C 2.609375 -5.398438 2.421875 -4.828125 2.421875 -4.109375 C 2.421875 -3.390625 2.609375 -2.816406 2.984375 -2.390625 C 3.367188 -1.960938 3.867188 -1.75 4.484375 -1.75 C 4.867188 -1.75 5.207031 -1.835938 5.5 -2.015625 C 5.800781 -2.203125 6.035156 -2.46875 6.203125 -2.8125 L 8.40625 -2.8125 C 8.164062 -1.914062 7.695312 -1.210938 7 -0.703125 C 6.3125 -0.191406 5.484375 0.0625 4.515625 0.0625 C 3.710938 0.0625 3 -0.113281 2.375 -0.46875 C 1.75 -0.820312 1.257812 -1.316406 0.90625 -1.953125 C 0.5625 -2.585938 0.390625 -3.304688 0.390625 -4.109375 Z M 0.390625 -4.109375 "/></g></g></g><g fill="#ffffff" fill-opacity="1"><g transform="translate(46.785292, 43.684115)"><g><path d="M 5.828125 -1.453125 L 2.765625 -1.453125 L 2.28125 0 L 0.1875 0 L 3.15625 -8.203125 L 5.46875 -8.203125 L 8.4375 0 L 6.328125 0 Z M 5.3125 -2.984375 L 4.296875 -6 L 3.296875 -2.984375 Z M 5.3125 -2.984375 "/></g></g></g><g fill="#ffffff" fill-opacity="1"><g transform="translate(56.284591, 43.684115)"><g><path d="M 3.6875 0.078125 C 3.09375 0.078125 2.554688 -0.015625 2.078125 -0.203125 C 1.609375 -0.398438 1.226562 -0.6875 0.9375 -1.0625 C 0.65625 -1.445312 0.503906 -1.910156 0.484375 -2.453125 L 2.625 -2.453125 C 2.65625 -2.148438 2.757812 -1.914062 2.9375 -1.75 C 3.113281 -1.59375 3.347656 -1.515625 3.640625 -1.515625 C 3.929688 -1.515625 4.160156 -1.582031 4.328125 -1.71875 C 4.503906 -1.851562 4.59375 -2.046875 4.59375 -2.296875 C 4.59375 -2.492188 4.523438 -2.65625 4.390625 -2.78125 C 4.253906 -2.914062 4.085938 -3.023438 3.890625 -3.109375 C 3.691406 -3.203125 3.40625 -3.300781 3.03125 -3.40625 C 2.507812 -3.570312 2.078125 -3.738281 1.734375 -3.90625 C 1.398438 -4.070312 1.113281 -4.3125 0.875 -4.625 C 0.632812 -4.945312 0.515625 -5.363281 0.515625 -5.875 C 0.515625 -6.644531 0.789062 -7.242188 1.34375 -7.671875 C 1.894531 -8.109375 2.613281 -8.328125 3.5 -8.328125 C 4.40625 -8.328125 5.132812 -8.109375 5.6875 -7.671875 C 6.238281 -7.242188 6.535156 -6.640625 6.578125 -5.859375 L 4.421875 -5.859375 C 4.398438 -6.128906 4.300781 -6.335938 4.125 -6.484375 C 3.945312 -6.640625 3.71875 -6.71875 3.4375 -6.71875 C 3.195312 -6.71875 3 -6.648438 2.84375 -6.515625 C 2.695312 -6.390625 2.625 -6.207031 2.625 -5.96875 C 2.625 -5.707031 2.75 -5.5 3 -5.34375 C 3.25 -5.195312 3.640625 -5.039062 4.171875 -4.875 C 4.703125 -4.695312 5.128906 -4.523438 5.453125 -4.359375 C 5.785156 -4.191406 6.070312 -3.953125 6.3125 -3.640625 C 6.5625 -3.328125 6.6875 -2.925781 6.6875 -2.4375 C 6.6875 -1.96875 6.566406 -1.539062 6.328125 -1.15625 C 6.085938 -0.78125 5.738281 -0.476562 5.28125 -0.25 C 4.832031 -0.03125 4.300781 0.078125 3.6875 0.078125 Z M 3.6875 0.078125 "/></g></g></g><g fill="#ffffff" fill-opacity="1"><g transform="translate(64.358506, 43.684115)"><g><path d="M 7.828125 -8.203125 L 7.828125 0 L 5.828125 0 L 5.828125 -3.375 L 2.71875 -3.375 L 2.71875 0 L 0.71875 0 L 0.71875 -8.203125 L 2.71875 -8.203125 L 2.71875 -4.984375 L 5.828125 -4.984375 L 5.828125 -8.203125 Z M 7.828125 -8.203125 "/></g></g></g><g fill="#ffffff" fill-opacity="1"><g transform="translate(-3.052808, 54.834116)"><g><path d="M 28.5625 4.453125 C 30.632812 4.453125 32.566406 3.734375 34.359375 2.296875 L 36.265625 4.875 C 34.066406 6.632812 31.484375 7.515625 28.515625 7.515625 C 26.148438 7.515625 23.945312 6.859375 21.90625 5.546875 C 19.863281 4.242188 18.316406 2.503906 17.265625 0.328125 C 12.710938 0.140625 9 -1.5 6.125 -4.59375 C 3.28125 -7.59375 1.859375 -11.34375 1.859375 -15.84375 C 1.859375 -20.425781 3.34375 -24.25 6.3125 -27.3125 C 9.34375 -30.476562 13.21875 -32.0625 17.9375 -32.0625 C 22.65625 -32.0625 26.53125 -30.476562 29.5625 -27.3125 C 32.53125 -24.25 34.015625 -20.425781 34.015625 -15.84375 C 34.015625 -11.820312 32.800781 -8.328125 30.375 -5.359375 C 27.957031 -2.359375 24.800781 -0.539062 20.90625 0.09375 C 21.832031 1.945312 23.410156 3.253906 25.640625 4.015625 C 26.472656 4.304688 27.445312 4.453125 28.5625 4.453125 Z M 17.9375 -3.109375 C 21.707031 -3.109375 24.753906 -4.335938 27.078125 -6.796875 C 29.304688 -9.148438 30.421875 -12.164062 30.421875 -15.84375 C 30.421875 -19.507812 29.304688 -22.519531 27.078125 -24.875 C 24.753906 -27.332031 21.707031 -28.5625 17.9375 -28.5625 C 14.175781 -28.5625 11.128906 -27.332031 8.796875 -24.875 C 6.566406 -22.519531 5.453125 -19.507812 5.453125 -15.84375 C 5.453125 -12.164062 6.566406 -9.148438 8.796875 -6.796875 C 11.128906 -4.335938 14.175781 -3.109375 17.9375 -3.109375 Z M 17.9375 -3.109375 "/></g></g></g></svg>